<svg width="394" height="69" viewBox="0 0 394 69" fill="none" xmlns="http://www.w3.org/2000/svg">
<path d="M54.5469 49.543L63.1602 4.01562H76.2998L62.1055 68H48.834L38.4189 25.1973L28.0039 68H14.7324L0.538086 4.01562H13.6777L22.335 49.4551L32.8818 4.01562H44.0439L54.5469 49.543ZM103.106 68.8789C96.1338 68.8789 90.4502 66.7402 86.0557 62.4629C81.6904 58.1855 79.5078 52.4873 79.5078 45.3682V44.1377C79.5078 39.3623 80.4307 35.0996 82.2764 31.3496C84.1221 27.5703 86.7295 24.6699 90.0986 22.6484C93.4971 20.5977 97.3643 19.5723 101.7 19.5723C108.204 19.5723 113.316 21.623 117.037 25.7246C120.787 29.8262 122.662 35.6416 122.662 43.1709V48.3564H92.3838C92.7939 51.4619 94.0244 53.9521 96.0752 55.8271C98.1553 57.7021 100.777 58.6396 103.941 58.6396C108.834 58.6396 112.657 56.8672 115.411 53.3223L121.651 60.3096C119.747 63.0049 117.169 65.1143 113.917 66.6377C110.665 68.1318 107.062 68.8789 103.106 68.8789ZM101.656 29.8555C99.1367 29.8555 97.0859 30.7051 95.5039 32.4043C93.9512 34.1035 92.9551 36.5352 92.5156 39.6992H110.182V38.6885C110.123 35.876 109.361 33.708 107.896 32.1846C106.432 30.6318 104.352 29.8555 101.656 29.8555ZM143.316 68H130.572V0.5H143.316V68ZM173.595 58.6396C175.938 58.6396 177.843 57.9951 179.308 56.7061C180.772 55.417 181.534 53.7031 181.593 51.5645H193.502C193.473 54.7871 192.594 57.7461 190.865 60.4414C189.137 63.1074 186.764 65.1875 183.746 66.6816C180.758 68.1465 177.447 68.8789 173.814 68.8789C167.018 68.8789 161.656 66.7256 157.73 62.4189C153.805 58.083 151.842 52.1064 151.842 44.4893V43.6543C151.842 36.3301 153.79 30.4854 157.687 26.1201C161.583 21.7549 166.93 19.5723 173.727 19.5723C179.674 19.5723 184.435 21.2715 188.009 24.6699C191.612 28.0391 193.443 32.5361 193.502 38.1611H181.593C181.534 35.7002 180.772 33.708 179.308 32.1846C177.843 30.6318 175.909 29.8555 173.507 29.8555C170.548 29.8555 168.307 30.9395 166.783 33.1074C165.289 35.2461 164.542 38.7324 164.542 43.5664V44.8848C164.542 49.7773 165.289 53.293 166.783 55.4316C168.277 57.5703 170.548 58.6396 173.595 58.6396ZM198.775 43.7861C198.775 39.0693 199.684 34.8652 201.5 31.1738C203.316 27.4824 205.924 24.626 209.322 22.6045C212.75 20.583 216.72 19.5723 221.231 19.5723C227.647 19.5723 232.877 21.5352 236.92 25.4609C240.992 29.3867 243.263 34.7188 243.731 41.457L243.819 44.709C243.819 52.0039 241.783 57.8633 237.711 62.2871C233.639 66.6816 228.175 68.8789 221.319 68.8789C214.464 68.8789 208.985 66.6816 204.884 62.2871C200.812 57.8926 198.775 51.916 198.775 44.3574V43.7861ZM211.476 44.709C211.476 49.2207 212.325 52.6777 214.024 55.0801C215.724 57.4531 218.155 58.6396 221.319 58.6396C224.396 58.6396 226.798 57.4678 228.526 55.124C230.255 52.751 231.119 48.9717 231.119 43.7861C231.119 39.3623 230.255 35.9346 228.526 33.5029C226.798 31.0713 224.366 29.8555 221.231 29.8555C218.126 29.8555 215.724 31.0713 214.024 33.5029C212.325 35.9053 211.476 39.6406 211.476 44.709ZM263.551 20.4512L263.946 25.7686C267.315 21.6377 271.871 19.5723 277.613 19.5723C283.736 19.5723 287.94 21.9893 290.226 26.8232C293.565 21.9893 298.326 19.5723 304.508 19.5723C309.664 19.5723 313.502 21.0811 316.021 24.0986C318.541 27.0869 319.801 31.5986 319.801 37.6338V68H307.057V37.6777C307.057 34.9824 306.529 33.0195 305.475 31.7891C304.42 30.5293 302.56 29.8994 299.894 29.8994C296.085 29.8994 293.448 31.7158 291.983 35.3486L292.027 68H279.327V37.7217C279.327 34.9678 278.785 32.9756 277.701 31.7451C276.617 30.5146 274.771 29.8994 272.164 29.8994C268.561 29.8994 265.953 31.3936 264.342 34.3818V68H251.642V20.4512H263.551ZM351.485 68.8789C344.513 68.8789 338.829 66.7402 334.435 62.4629C330.069 58.1855 327.887 52.4873 327.887 45.3682V44.1377C327.887 39.3623 328.81 35.0996 330.655 31.3496C332.501 27.5703 335.108 24.6699 338.478 22.6484C341.876 20.5977 345.743 19.5723 350.079 19.5723C356.583 19.5723 361.695 21.623 365.416 25.7246C369.166 29.8262 371.041 35.6416 371.041 43.1709V48.3564H340.763C341.173 51.4619 342.403 53.9521 344.454 55.8271C346.534 57.7021 349.156 58.6396 352.32 58.6396C357.213 58.6396 361.036 56.8672 363.79 53.3223L370.03 60.3096C368.126 63.0049 365.548 65.1143 362.296 66.6377C359.044 68.1318 355.44 68.8789 351.485 68.8789ZM350.035 29.8555C347.516 29.8555 345.465 30.7051 343.883 32.4043C342.33 34.1035 341.334 36.5352 340.895 39.6992H358.561V38.6885C358.502 35.876 357.74 33.708 356.275 32.1846C354.811 30.6318 352.73 29.8555 350.035 29.8555ZM378.951 61.7598C378.951 59.7383 379.625 58.0977 380.973 56.8379C382.35 55.5781 384.063 54.9482 386.114 54.9482C388.194 54.9482 389.908 55.5781 391.256 56.8379C392.633 58.0977 393.321 59.7383 393.321 61.7598C393.321 63.752 392.647 65.3779 391.3 66.6377C389.952 67.8682 388.224 68.4834 386.114 68.4834C384.034 68.4834 382.32 67.8682 380.973 66.6377C379.625 65.3779 378.951 63.752 378.951 61.7598Z" fill="black"/>
</svg>
