<svg width="180" height="180" viewBox="0 0 180 180" fill="none" xmlns="http://www.w3.org/2000/svg">
<rect width="180" height="180" rx="10" fill="#FEFEFE"/>
<path d="M46.7207 22.6475H34.0898V57H25.5938V22.6475H13.1328V15.7656H46.7207V22.6475ZM59.04 29.6992C61.2113 27.0938 63.9395 25.791 67.2246 25.791C73.8704 25.791 77.2406 29.652 77.335 37.374V57H69.1504V37.6006C69.1504 35.8447 68.7728 34.5514 68.0176 33.7207C67.2624 32.8711 66.0068 32.4463 64.251 32.4463C61.8532 32.4463 60.1162 33.3714 59.04 35.2217V57H50.8555V13.5H59.04V29.6992ZM100.728 34.0322C99.6136 33.8812 98.6318 33.8057 97.7822 33.8057C94.6859 33.8057 92.6562 34.8535 91.6934 36.9492V57H83.5088V26.3574H91.2402L91.4668 30.0107C93.1094 27.1976 95.3844 25.791 98.292 25.791C99.1982 25.791 100.048 25.9137 100.841 26.1592L100.728 34.0322ZM118.229 57.5664C113.736 57.5664 110.073 56.1882 107.241 53.4316C104.428 50.6751 103.021 47.0029 103.021 42.415V41.6221C103.021 38.5446 103.616 35.7975 104.806 33.3809C105.995 30.9453 107.675 29.0762 109.847 27.7734C112.037 26.4518 114.529 25.791 117.323 25.791C121.515 25.791 124.809 27.1126 127.207 29.7559C129.624 32.3991 130.832 36.1468 130.832 40.999V44.3408H111.319C111.584 46.3421 112.377 47.9469 113.698 49.1553C115.039 50.3636 116.729 50.9678 118.768 50.9678C121.921 50.9678 124.384 49.8255 126.159 47.541L130.181 52.0439C128.953 53.7809 127.292 55.1403 125.196 56.1221C123.101 57.085 120.778 57.5664 118.229 57.5664ZM117.295 32.418C115.671 32.418 114.35 32.9655 113.33 34.0605C112.329 35.1556 111.688 36.7227 111.404 38.7617H122.789V38.1104C122.751 36.2979 122.26 34.9007 121.316 33.9189C120.372 32.9183 119.032 32.418 117.295 32.418ZM149.608 57.5664C145.115 57.5664 141.452 56.1882 138.62 53.4316C135.807 50.6751 134.4 47.0029 134.4 42.415V41.6221C134.4 38.5446 134.995 35.7975 136.185 33.3809C137.374 30.9453 139.054 29.0762 141.226 27.7734C143.416 26.4518 145.908 25.791 148.702 25.791C152.894 25.791 156.188 27.1126 158.586 29.7559C161.003 32.3991 162.211 36.1468 162.211 40.999V44.3408H142.698C142.963 46.3421 143.756 47.9469 145.077 49.1553C146.418 50.3636 148.107 50.9678 150.146 50.9678C153.299 50.9678 155.763 49.8255 157.538 47.541L161.56 52.0439C160.332 53.7809 158.671 55.1403 156.575 56.1221C154.479 57.085 152.157 57.5664 149.608 57.5664ZM148.674 32.418C147.05 32.418 145.729 32.9655 144.709 34.0605C143.708 35.1556 143.066 36.7227 142.783 38.7617H154.168V38.1104C154.13 36.2979 153.639 34.9007 152.695 33.9189C151.751 32.9183 150.411 32.418 148.674 32.418ZM32.3057 83.7656H40.8018V112.312C40.8018 114.937 40.2165 117.259 39.0459 119.279C37.8942 121.281 36.2611 122.829 34.1465 123.924C32.0319 125.019 29.6436 125.566 26.9814 125.566C22.6201 125.566 19.2217 124.462 16.7861 122.253C14.3506 120.025 13.1328 116.882 13.1328 112.822H21.6855C21.6855 114.842 22.1104 116.334 22.96 117.297C23.8096 118.26 25.1501 118.741 26.9814 118.741C28.6051 118.741 29.8984 118.184 30.8613 117.07C31.8242 115.956 32.3057 114.37 32.3057 112.312V83.7656ZM69.4619 114.182C69.4619 112.577 68.8955 111.35 67.7627 110.5C66.6299 109.632 64.5908 108.725 61.6455 107.781C58.7002 106.818 56.3685 105.874 54.6504 104.949C49.9681 102.419 47.627 99.0114 47.627 94.7256C47.627 92.4977 48.25 90.5153 49.4961 88.7783C50.7611 87.0225 52.5641 85.6536 54.9053 84.6719C57.2653 83.6901 59.9085 83.1992 62.835 83.1992C65.7803 83.1992 68.4046 83.7373 70.708 84.8135C73.0114 85.8708 74.7956 87.3717 76.0605 89.3164C77.3444 91.2611 77.9863 93.4701 77.9863 95.9434H69.4902C69.4902 94.0553 68.8955 92.5921 67.7061 91.5537C66.5166 90.4964 64.8457 89.9678 62.6934 89.9678C60.6165 89.9678 59.0023 90.4115 57.8506 91.2988C56.6989 92.1673 56.123 93.319 56.123 94.7539C56.123 96.0944 56.7933 97.2178 58.1338 98.124C59.4932 99.0303 61.485 99.8799 64.1094 100.673C68.9427 102.127 72.4639 103.93 74.6729 106.082C76.8818 108.234 77.9863 110.915 77.9863 114.125C77.9863 117.693 76.6364 120.497 73.9365 122.536C71.2367 124.556 67.6022 125.566 63.0332 125.566C59.8613 125.566 56.9727 124.991 54.3672 123.839C51.7617 122.668 49.7699 121.073 48.3916 119.053C47.0322 117.033 46.3525 114.691 46.3525 112.029H54.877C54.877 116.579 57.5957 118.854 63.0332 118.854C65.0534 118.854 66.6299 118.449 67.7627 117.637C68.8955 116.806 69.4619 115.654 69.4619 114.182Z" fill="black"/>
</svg>
